# xmcd CD database file
#
# Track frame offsets:
#	150
#	5636
#	21890
#	41799
#	61207
#	69188
#	93759
#	116365
#	140449
#	162453
#
# Disc length: 2291 seconds
#
# Revision: 0
# Processed by: cddbd v1.5.1PL0 Copyright (c) Steve Scherf et al.
# Submitted via: CDex 1.50
#
DISCID=7c08f10a
DTITLE=HOME SWEET HOME - HOME MADE 家族
DYEAR=1900
DGENRE=JPop
TTITLE0=HOME MADE 家訓
TTITLE1=スタミナ
TTITLE2=B列車でいこう
TTITLE3=ウェンズデー・ナイト・フィーバー
TTITLE4=口鼓（くちづつみ）
TTITLE5=HOME SWEET HOME
TTITLE6=ブーメラン
TTITLE7=夜の蝶
TTITLE8=You'll be alright
TTITLE9=てぃらりら♪
EXTD=
EXTT0=
EXTT1=
EXTT2=
EXTT3=
EXTT4=
EXTT5=
EXTT6=
EXTT7=
EXTT8=
EXTT9=
PLAYORDER=
